<svg xmlns="http://www.w3.org/2000/svg" viewBox="0 0 16.43 16.89"><defs><style>.cls-1{fill:#fff;}</style></defs><title>Asset 6</title><g id="Layer_2" data-name="Layer 2"><g id="Layer_1-2" data-name="Layer 1"><path class="cls-1" d="M8.44,16.89A8.45,8.45,0,0,1,8.44,0,8.3,8.3,0,0,1,10,.15a.5.5,0,0,1,.41.43.49.49,0,0,1-.29.51,5.57,5.57,0,0,0,2.26,10.65,5.52,5.52,0,0,0,3.26-1.06.5.5,0,0,1,.77.57A8.46,8.46,0,0,1,8.44,16.89ZM8.34,1a7.45,7.45,0,1,0,6.48,11.26,6.37,6.37,0,0,1-2.45.48A6.56,6.56,0,0,1,8.34,1Z"/></g></g></svg>