<svg xmlns="http://www.w3.org/2000/svg" viewBox="0 0 23.98 17.91"><defs><style>.cls-1{fill:#fff;}</style></defs><title>Asset 3</title><g id="Layer_2" data-name="Layer 2"><g id="Layer_1-2" data-name="Layer 1"><path class="cls-1" d="M6.43,17.91a.56.56,0,0,1-.32-.11A.49.49,0,0,1,6,17.1l2.67-3.34a.5.5,0,0,1,.78.62L6.82,17.72A.52.52,0,0,1,6.43,17.91Z"/><path class="cls-1" d="M10,17.91a.51.51,0,0,1-.31-.11.5.5,0,0,1-.08-.7l3.51-4.38a.5.5,0,1,1,.78.63l-3.51,4.37A.49.49,0,0,1,10,17.91Z"/><path class="cls-1" d="M13.64,17.91a.51.51,0,0,1-.31-.11.5.5,0,0,1-.08-.7l1.38-1.73a.5.5,0,1,1,.78.63L14,17.72A.51.51,0,0,1,13.64,17.91Z"/><path class="cls-1" d="M18.26,15.46v-1a4.72,4.72,0,1,0-.85-9.35l-.56.1,0-.57a3.78,3.78,0,0,0-7.54-.12l0,.6L8.65,5a2.87,2.87,0,0,0-.78-.11,3.17,3.17,0,0,0-3.14,2.8l-.06.43H4.13a3.19,3.19,0,0,0,0,6.37v1a4.18,4.18,0,0,1-.37-8.35A4.17,4.17,0,0,1,7.87,3.86a3.87,3.87,0,0,1,.48,0A4.78,4.78,0,0,1,17.77,4l.49,0a5.72,5.72,0,0,1,0,11.44Z"/><path class="cls-1" d="M4,14.46H5.4a.48.48,0,0,1,.48.47V15a.49.49,0,0,1-.48.48H4.08"/><path class="cls-1" d="M18.46,14.45H17a.49.49,0,0,0-.48.48V15a.48.48,0,0,0,.48.47H18.3"/></g></g></svg>