<svg xmlns="http://www.w3.org/2000/svg" viewBox="0 0 25.35 19.74"><defs><style>.cls-1{fill:#fff;}</style></defs><title>Asset 4</title><g id="Layer_2" data-name="Layer 2"><g id="Layer_1-2" data-name="Layer 1"><path class="cls-1" d="M19.47,19.74H5a4.29,4.29,0,0,1-.37-8.57A4.28,4.28,0,0,1,8.76,7.82a3,3,0,0,1,.51,0A4.91,4.91,0,0,1,19,8l.52,0a5.88,5.88,0,1,1,0,11.75ZM4.91,12.15a3.3,3.3,0,0,0,0,6.59H19.47a4.88,4.88,0,1,0,0-9.75,5,5,0,0,0-.88.09l-.56.1,0-.57a3.91,3.91,0,0,0-7.81-.12l0,.59-.58-.14a3.18,3.18,0,0,0-.81-.12,3.31,3.31,0,0,0-3.26,2.9l0,.44Z"/><path class="cls-1" d="M4.74,11.69a4.93,4.93,0,1,1,7.1-6.76l-.79.61a3.93,3.93,0,1,0-5.66,5.39Z"/><circle class="cls-1" cx="7.92" cy="0.62" r="0.62"/><circle class="cls-1" cx="13.09" cy="2.76" r="0.62"/><circle class="cls-1" cx="0.62" cy="7.92" r="0.62"/><circle class="cls-1" cx="2.76" cy="2.76" r="0.62"/></g></g></svg>