<svg xmlns="http://www.w3.org/2000/svg" viewBox="0 0 23.98 17.9"><defs><style>.cls-1{fill:#fff;}</style></defs><title>Asset 2</title><g id="Layer_2" data-name="Layer 2"><g id="Layer_1-2" data-name="Layer 1"><path class="cls-1" d="M9.69,17.9a.48.48,0,0,1-.34-.13.49.49,0,0,1,0-.7l3.22-3.49-3.2.73a.5.5,0,0,1-.55-.26.49.49,0,0,1,.1-.6l4-3.76a.5.5,0,0,1,.71,0,.5.5,0,0,1,0,.71l-2.66,2.5,3-.67a.49.49,0,0,1,.48.82l-4.31,4.67A.46.46,0,0,1,9.69,17.9Z"/><path class="cls-1" d="M18.26,15.46v-1a4.72,4.72,0,1,0-.85-9.35l-.56.1,0-.57a3.78,3.78,0,0,0-7.54-.12l0,.6L8.65,5a2.87,2.87,0,0,0-.78-.11,3.17,3.17,0,0,0-3.14,2.8l-.06.43H4.13a3.19,3.19,0,0,0,0,6.37v1a4.18,4.18,0,0,1-.37-8.35A4.17,4.17,0,0,1,7.87,3.86a3.87,3.87,0,0,1,.48,0A4.78,4.78,0,0,1,17.77,4l.49,0a5.72,5.72,0,0,1,0,11.44Z"/><path class="cls-1" d="M4,14.46H5.4a.48.48,0,0,1,.48.47V15a.49.49,0,0,1-.48.48H4.08"/><path class="cls-1" d="M18.46,14.45H17a.49.49,0,0,0-.48.48V15a.48.48,0,0,0,.48.47H18.3"/></g></g></svg>