<svg xmlns="http://www.w3.org/2000/svg" viewBox="0 0 24.68 15.9"><defs><style>.cls-1{fill:#fff;}</style></defs><title>Asset 7</title><g id="Layer_2" data-name="Layer 2"><g id="Layer_1-2" data-name="Layer 1"><path class="cls-1" d="M18.81,15.9H4.3a4.3,4.3,0,0,1-.38-8.58A4.29,4.29,0,0,1,8.09,4L8.6,4a4.91,4.91,0,0,1,9.68.16l.53,0a5.88,5.88,0,0,1,0,11.76ZM4.24,8.3a3.3,3.3,0,0,0,.06,6.6H18.81a4.88,4.88,0,1,0-.88-9.67l-.57.11,0-.58a3.91,3.91,0,0,0-7.81-.12l0,.6-.57-.15A3.2,3.2,0,0,0,8.09,5,3.28,3.28,0,0,0,4.84,7.87l0,.44Z"/></g></g></svg>