<svg xmlns="http://www.w3.org/2000/svg" viewBox="0 0 16.04 12.52"><defs><style>.cls-1{fill:#fff;}</style></defs><title>Asset 1</title><g id="Layer_2" data-name="Layer 2"><g id="Layer_1-2" data-name="Layer 1"><path class="cls-1" d="M3.14,3.44A3.62,3.62,0,0,1,.26,2a.5.5,0,0,1,.79-.61,2.65,2.65,0,0,0,2.09,1,2.61,2.61,0,0,0,2.08-1A.5.5,0,1,1,6,2,3.6,3.6,0,0,1,3.14,3.44Z"/><path class="cls-1" d="M13.06,3.44A3.63,3.63,0,0,1,10.18,2,.5.5,0,0,1,11,1.41a2.65,2.65,0,0,0,2.09,1,2.61,2.61,0,0,0,2.08-1,.51.51,0,0,1,.71-.09.52.52,0,0,1,.09.7A3.63,3.63,0,0,1,13.06,3.44Z"/><path class="cls-1" d="M10.58,2.22a.51.51,0,0,1-.4-.2A2.61,2.61,0,0,0,8.1,1,2.64,2.64,0,0,0,6,2a.5.5,0,0,1-.79-.61,3.64,3.64,0,0,1,5.75,0,.5.5,0,0,1-.08.7A.53.53,0,0,1,10.58,2.22Z"/><path class="cls-1" d="M3,12.52A3.62,3.62,0,0,1,.1,11.11a.51.51,0,0,1,.09-.7.51.51,0,0,1,.71.09,2.61,2.61,0,0,0,2.08,1,2.64,2.64,0,0,0,2.09-1,.5.5,0,0,1,.79.61A3.62,3.62,0,0,1,3,12.52Z"/><path class="cls-1" d="M12.9,12.52A3.59,3.59,0,0,1,10,11.11a.5.5,0,1,1,.79-.61,2.61,2.61,0,0,0,2.08,1,2.64,2.64,0,0,0,2.09-1,.5.5,0,0,1,.79.61A3.61,3.61,0,0,1,12.9,12.52Z"/><path class="cls-1" d="M5.46,11.3a.52.52,0,0,1-.31-.1.5.5,0,0,1-.08-.7,3.64,3.64,0,0,1,5.75,0,.5.5,0,0,1-.79.61,2.64,2.64,0,0,0-2.09-1,2.61,2.61,0,0,0-2.08,1A.5.5,0,0,1,5.46,11.3Z"/><path class="cls-1" d="M3.14,8A3.61,3.61,0,0,1,.26,6.62.5.5,0,0,1,1.05,6,2.64,2.64,0,0,0,3.14,7,2.61,2.61,0,0,0,5.22,6,.5.5,0,0,1,6,6.62,3.59,3.59,0,0,1,3.14,8Z"/><path class="cls-1" d="M13.06,8a3.62,3.62,0,0,1-2.88-1.41A.5.5,0,0,1,11,6a2.64,2.64,0,0,0,2.09,1,2.61,2.61,0,0,0,2.08-1,.51.51,0,0,1,.71-.09.51.51,0,0,1,.09.7A3.62,3.62,0,0,1,13.06,8Z"/><path class="cls-1" d="M5.62,6.82a.51.51,0,0,1-.31-.11A.5.5,0,0,1,5.22,6,3.64,3.64,0,0,1,11,6a.5.5,0,1,1-.79.61,2.61,2.61,0,0,0-2.08-1A2.64,2.64,0,0,0,6,6.62.47.47,0,0,1,5.62,6.82Z"/></g></g></svg>